<?xml version="1.0" encoding="UTF-8"?>
<!DOCTYPE svg PUBLIC "-//W3C//DTD SVG 1.1//EN" "http://www.w3.org/Graphics/SVG/1.1/DTD/svg11.dtd">
<!-- Creator: CorelDRAW X6 -->
<svg xmlns="http://www.w3.org/2000/svg" xml:space="preserve" width="3.19444in" height="2.38889in" version="1.1" style="shape-rendering:geometricPrecision; text-rendering:geometricPrecision; image-rendering:optimizeQuality; fill-rule:evenodd; clip-rule:evenodd"
viewBox="0 0 3194 2389"
 xmlns:xlink="http://www.w3.org/1999/xlink">
 <defs>
  <style type="text/css">
   <![CDATA[
    .fil3 {fill:#006CB5;fill-rule:nonzero}
    .fil4 {fill:#373435;fill-rule:nonzero}
    .fil2 {fill:#ED3237;fill-rule:nonzero}
    .fil1 {fill:#FEFEFE;fill-rule:nonzero}
    .fil0 {fill:#A0A29F;fill-rule:nonzero}
   ]]>
  </style>
 </defs>
 <g id="Layer_x0020_1">
  <metadata id="CorelCorpID_0Corel-Layer"/>
  <path class="fil0" d="M1551 457c43,0 85,4 126,11l96 -100c-67,-23 -142,-36 -221,-36 -135,0 -257,38 -348,99l83 79c77,-34 168,-53 265,-53z"/>
  <path class="fil1" d="M1551 333c79,0 154,13 221,36l104 -108c-97,-38 -208,-60 -325,-60 -175,0 -335,48 -457,128l109 103c91,-61 213,-99 348,-99z"/>
  <path class="fil0" d="M1052 756c9,-36 25,-70 47,-101l-42 -42c-8,26 -13,53 -13,81 0,21 3,42 8,62z"/>
  <path class="fil0" d="M743 991l-18 91 175 -75c-11,-23 -13,-53 -20,-78l-138 62z"/>
  <polygon class="fil0" points="620,-1 367,1386 486,1395 737,-11 737,-11 "/>
  <path class="fil2" d="M1471 797l0 -112 -184 -174 -83 -79 -109 -103 -358 -339 0 0 -251 1406 531 -233c-53,-47 -90,-96 -118,-155l-173 74 17 -91 112 -583 9 -49 92 93 119 120 51 51 210 181 -204 93c53,53 116,99 200,126l254 -114 -116 -111z"/>
  <path class="fil0" d="M2050 756c5,-20 8,-41 8,-62 0,-63 -23,-122 -62,-173l-60 63c58,48 99,108 115,173z"/>
  <path class="fil0" d="M2164 1350l-143 -137c-23,16 -47,30 -73,43l216 207 666 -694 -1 -112 -665 693z"/>
  <path class="fil0" d="M1679 884l-118 -113 -90 -86 0 112 127 122 121 116c31,-8 60,-17 88,-29l-128 -122z"/>
  <polygon class="fil0" points="2142,257 2047,355 1942,464 1871,539 1736,679 1793,734 1936,584 1996,521 2106,407 2142,370 2508,721 2565,662 "/>
  <path class="fil1" d="M2106 407l-110 115c39,51 62,110 62,173 0,21 -3,42 -8,62 -13,53 -42,102 -83,144 -42,43 -97,80 -161,106 -28,12 -57,21 -88,29 -52,13 -108,20 -167,20 -72,0 -141,-11 -203,-30 -85,-26 -157,-69 -210,-121 -19,-19 -36,-40 -50,-62 -17,-27 -30,-56 -37,-86 -5,-20 -8,-41 -8,-62 0,-28 5,-55 13,-81l-126 -128c-46,69 -72,146 -72,228 0,21 2,42 5,62 8,50 26,97 52,141 13,22 28,44 45,64 44,54 102,101 169,139 117,66 263,106 422,106 111,0 216,-19 309,-54 28,-10 55,-22 81,-35 60,-30 113,-67 158,-110 75,-71 124,-157 140,-251 3,-20 5,-41 5,-62 0,-115 -51,-221 -138,-306z"/>
  <path class="fil3" d="M1678 885l127 122c64,-27 120,-63 162,-106l-174 -167 -57 -54 134 -140 71 -74 105 -109 95 -99 422 405 -57 59 -346 360c-36,50 -84,94 -139,132l142 137 666 -693 -694 -666 -260 271 -104 108 -96 100 -206 215 207 200z"/>
  <path class="fil0" d="M1092 845c0,0 3,5 4,6 10,16 24,31 37,46l207 -96 -476 -443 -13 69 374 370 -133 49z"/>
  <path class="fil0" d="M2244 713c0,21 -2,42 -5,62 -15,94 -65,180 -140,251 -44,42 -98,80 -158,110 -26,13 -53,25 -81,35 -93,34 -198,54 -309,54 -159,0 -305,-40 -422,-106 -67,-38 -125,-85 -169,-139 -17,-20 -32,-42 -45,-64 -26,-44 -44,-91 -52,-141 -3,-20 -5,-41 -5,-62 0,-7 0,-13 1,-20 0,0 0,-1 0,-1 -3,20 -1,124 -1,145 0,33 4,66 13,98 6,25 15,49 26,72 28,59 70,112 122,159 127,112 318,184 531,184 148,0 285,-34 398,-93 26,-13 50,-28 73,-43 56,-38 103,-83 139,-133 53,-72 83,-155 83,-243 0,-19 2,-106 0,-141 0,-5 0,11 0,17z"/>
  <polygon class="fil4" points="185,1572 737,1572 685,1784 421,1784 395,1896 670,1896 622,2093 350,2093 285,2372 0,2372 "/>
  <polygon class="fil4" points="812,1572 1096,1572 911,2372 626,2372 "/>
  <path class="fil4" d="M1381 1954c91,0 155,-54 155,-131 0,-41 -30,-61 -89,-61 -17,0 -26,1 -44,5l-43 185c9,1 10,2 21,2zm-210 -377l18 -2c91,-11 205,-18 268,-18 105,0 186,12 247,37 78,32 125,103 125,188 0,73 -25,143 -72,197 -41,47 -77,70 -153,92l-18 6c8,6 10,8 14,12 22,25 89,155 145,283l-314 0c-41,-114 -52,-144 -106,-273l-63 273 -277 0 184 -795z"/>
  <polygon class="fil4" points="2505,1572 3196,1572 3196,1575 3148,1804 2943,1804 2807,2372 2522,2372 2658,1804 2436,1804 "/>
  <path class="fil4" d="M2939 2296c6,0 10,-3 10,-9 0,-5 -3,-8 -9,-8 -1,0 -2,0 -3,0l0 16c1,0 2,0 3,0zm-25 -33c4,0 4,-1 11,-1 7,-1 10,-1 13,-1 23,0 34,9 34,26 0,10 -4,16 -13,20l-1 0c1,1 1,1 1,1 2,2 10,14 17,25l-26 0c-5,-10 -7,-13 -14,-24l0 24 -22 0 0 -71zm27 96c34,0 61,-27 61,-61 0,-34 -27,-61 -61,-61 -34,0 -61,27 -61,61 0,34 27,61 61,61zm0 -130c38,0 70,31 70,69 0,39 -31,70 -70,70 -39,0 -69,-30 -69,-70 0,-39 31,-69 69,-69z"/>
  <path class="fil4" d="M1774 2352c80,24 168,37 249,37 111,0 196,-25 269,-78 81,-58 133,-146 133,-227 0,-54 -24,-103 -65,-138 -33,-26 -67,-47 -136,-79l-56 -26c-18,-10 -27,-19 -27,-30 0,-29 37,-50 86,-50 37,0 81,11 166,38l58 -217c-63,-17 -125,-26 -186,-26 -233,0 -411,127 -411,291 0,86 57,148 201,215 68,31 80,40 80,61 0,32 -35,53 -93,53 -51,0 -116,-16 -205,-48l0 0 -63 223z"/>
 </g>
</svg>
